<?xml version="1.0" encoding="UTF-8"?>
<svg xmlns="http://www.w3.org/2000/svg" xmlns:xlink="http://www.w3.org/1999/xlink" width="90.46pt" height="556.12pt" viewBox="0 0 90.46 556.12" version="1.1">
<g id="surface1">
<path style="fill:none;stroke-width:12;stroke-linecap:round;stroke-linejoin:round;stroke:rgb(0%,0%,0%);stroke-opacity:1;stroke-miterlimit:4;" d="M 84.179688 3712.29375 L 89.882813 3682.91875 L 124.960938 3575.184375 L 148.476563 3464.364062 L 160.195313 3351.66875 L 159.882813 3238.3875 L 147.65625 3125.692187 L 123.554688 3014.989062 L 120.546875 2990.848437 L 122.109375 2900.770312 L 127.617188 2872.059375 L 142.421875 2846.825 L 164.882813 2828.075 L 192.34375 2817.957812 L 219.765625 2807.801562 L 242.226563 2789.051562 L 257.03125 2763.817187 L 262.539063 2735.10625 L 280.78125 1690.457812 L 276.054688 1559.129687 L 257.382813 1428.973437 L 225 1301.590625 L 179.21875 1178.3875 L 120.585938 1060.73125 L 49.765625 949.989062 L 32.773438 919.0125 L 22.539063 885.184375 L 19.492188 849.989062 L 25.976563 476.629687 L 34.648438 397.840625 L 57.695313 321.942187 L 94.296875 251.629687 L 143.164063 189.207812 L 202.65625 136.825 L 270.78125 96.278125 L 345.195313 68.934375 L 423.398438 55.73125 L 502.65625 57.098437 L 580.3125 73.035937 L 653.710938 102.957812 L 720.390625 145.848437 L 778.046875 200.2625 L 824.6875 264.364062 L 858.789063 335.965625 L 879.140625 412.567187 L 885.078125 491.629687 L 878.59375 864.95 L 874.492188 899.871875 L 863.632813 933.270312 L 846.40625 963.895312 L 784.179688 1062.7625 L 732.070313 1167.332812 L 690.46875 1276.5125 L 659.882813 1389.207812 L 640.585938 1504.442187 L 632.8125 1621.04375 L 613.28125 2738.035937 L 618.867188 2769.989062 L 635.898438 2797.567187 L 661.953125 2816.864062 L 724.6875 2833.348437 L 750.742188 2852.60625 L 767.773438 2880.184375 L 773.320313 2912.1375 L 771.523438 3014.754687 L 749.21875 3128.348437 L 739.375 3243.739062 L 742.1875 3359.442187 L 757.539063 3474.207812 L 785.390625 3586.551562 L 825.273438 3695.2625 L 832.148438 3726.434375 L 875.742188 5096.160937 L 875.78125 5099.051562 L 868.945313 5172.645312 L 848.945313 5243.85625 L 816.484375 5310.2625 L 772.5 5369.754687 L 718.554688 5420.301562 L 656.40625 5460.340625 L 588.007813 5488.465625 L 515.703125 5503.85625 L 441.796875 5505.8875 L 368.710938 5494.6375 L 298.867188 5470.379687 L 234.53125 5433.895312 L 177.851563 5386.434375 L 130.664063 5329.559375 L 94.492188 5265.067187 L 70.507813 5195.10625 L 59.53125 5121.98125 L 84.179688 3712.29375 " transform="matrix(0.1,0,0,-0.1,0,556.12)"/>
</g>
</svg>
