<?xml version="1.0" encoding="UTF-8"?>
<svg xmlns="http://www.w3.org/2000/svg" xmlns:xlink="http://www.w3.org/1999/xlink" width="1044.48pt" height="783.36pt" viewBox="0 0 1044.48 783.36" version="1.1">
<g id="surface1">
<path style="fill:none;stroke-width:10;stroke-linecap:round;stroke-linejoin:round;stroke:rgb(0%,0%,0%);stroke-opacity:1;stroke-miterlimit:4;" d="M 10175.703125 3720.865625 L 5189.726563 3720.865625 L 5149.84375 3717.50625 L 5111.09375 3707.584375 L 5074.53125 3691.334375 L 5051.523438 3673.014062 L 5036.132813 3647.935937 L 5021.875 3623.873437 L 5000.976563 3605.357812 L 4975.390625 3594.06875 L 4947.617188 3591.139062 L 4755.546875 3591.139062 L 4730.3125 3586.803125 L 4708.046875 3574.225 L 4691.289063 3554.928125 L 4681.914063 3531.1 L 4681.132813 3505.553125 L 4681.132813 3395.592187 L 4676.367188 3361.451562 L 4662.460938 3329.889062 L 4640.429688 3303.326562 L 4612.03125 3283.795312 L 4579.335938 3272.81875 L 4536.367188 3269.576562 L 4493.789063 3275.982812 L 4453.671875 3291.646875 L 4418.046875 3315.826562 L 4368.671875 3352.428125 L 4314.726563 3381.725 L 4257.1875 3403.248437 L 4197.1875 3416.490625 L 4043.945313 3434.615625 L 3889.84375 3443.44375 L 3735.507813 3443.092187 L 3581.523438 3433.44375 L 3464.140625 3417.81875 L 3348.4375 3392.896875 L 3235.039063 3358.834375 L 3124.765625 3315.826562 L 3044.21875 3285.240625 L 2961.132813 3262.50625 L 2876.25 3247.975 L 2790.351563 3241.685937 L 2704.179688 3243.75625 L 2618.671875 3254.06875 L 2477.617188 3273.482812 L 2335.546875 3283.717187 L 2193.164063 3284.810937 L 2050.976563 3276.764062 L 1954.375 3265.240625 L 1858.59375 3247.975 L 1693.085938 3218.365625 L 1526.054688 3198.951562 L 1358.164063 3189.771875 L 1190 3190.94375 L 1022.226563 3202.389062 L 855.507813 3224.107812 L 746.640625 3246.178125 L 639.84375 3276.88125 L 535.859375 3315.982812 L 435.351563 3363.2875 L 338.867188 3418.44375 L 247.148438 3481.1 L 221.289063 3503.795312 L 199.335938 3530.240625 L 181.835938 3559.85 L 148.320313 3639.498437 L 123.75 3722.35 L 108.398438 3807.389062 L 102.460938 3893.6 L 106.015625 3979.967187 L 119.0625 4065.357812 L 141.328125 4148.834375 L 172.65625 4229.420312 L 212.617188 4306.021875 L 242.5 4347.0375 L 279.453125 4381.803125 L 321.523438 4410.865625 L 366.601563 4435.045312 L 414.101563 4454.029687 L 585.625 4507.232812 L 759.453125 4552.428125 L 935.234375 4589.498437 L 1112.5 4618.2875 L 1290.976563 4638.75625 L 1394.804688 4644.38125 L 1498.828125 4642.310937 L 1602.382813 4632.50625 L 1704.960938 4615.045312 L 1911.953125 4575.63125 L 2120.15625 4543.2875 L 2329.335938 4518.170312 L 2421.054688 4511.920312 L 2512.929688 4511.920312 L 2604.648438 4518.170312 L 2729.023438 4525.748437 L 2853.515625 4522.935937 L 2977.382813 4509.810937 L 3099.726563 4486.451562 L 3219.6875 4452.935937 L 3412.96875 4395.982812 L 3609.0625 4349.459375 L 3807.34375 4313.6 L 3893.710938 4304.967187 L 3980.546875 4305.396875 L 4066.835938 4314.85 L 4151.679688 4333.2875 L 4234.101563 4360.475 L 4313.28125 4396.060937 L 4359.882813 4423.209375 L 4403.359375 4455.045312 L 4443.320313 4491.217187 L 4455.742188 4500.279687 L 4470.3125 4505.084375 L 4513.28125 4509.029687 L 4556.40625 4507.232812 L 4598.867188 4499.732812 L 4618.828125 4492.19375 L 4636.445313 4480.123437 L 4650.625 4464.185937 L 4665.976563 4437.076562 L 4675.976563 4407.623437 L 4680.351563 4376.842187 L 4681.914063 4309.85 L 4680.351563 4242.896875 L 4685.039063 4222.701562 L 4699.570313 4207.935937 L 4733.789063 4192.310937 L 4770.351563 4183.13125 L 4807.851563 4180.553125 L 4960.273438 4180.553125 L 4989.101563 4176.373437 L 5015.585938 4164.185937 L 5037.460938 4144.967187 L 5053.046875 4120.31875 L 5069.726563 4092.428125 L 5092.617188 4069.264062 L 5120.390625 4052.310937 L 5151.445313 4042.467187 L 10181.601563 4042.467187 L 10223.710938 4036.842187 L 10262.8125 4020.435937 L 10296.289063 3994.303125 L 10321.796875 3960.357812 L 10337.5 3920.865625 L 10342.382813 3878.678125 L 10335.898438 3836.685937 L 10318.789063 3797.81875 L 10292.109375 3764.810937 L 10257.695313 3739.889062 L 10218.007813 3724.889062 L 10175.703125 3720.865625 " transform="matrix(0.1,0,0,-0.1,0,783.36)"/>
</g>
</svg>
