<?xml version="1.0" encoding="UTF-8"?>
<svg xmlns="http://www.w3.org/2000/svg" xmlns:xlink="http://www.w3.org/1999/xlink" width="1044.48pt" height="783.36pt" viewBox="0 0 1044.48 783.36" version="1.1">
<g id="surface1">
<path style="fill:none;stroke-width:12;stroke-linecap:round;stroke-linejoin:round;stroke:rgb(0%,0%,0%);stroke-opacity:1;stroke-miterlimit:4;" d="M 10175.703125 3720.865625 L 5189.726563 3720.865625 L 5179.726563 3720.670312 L 5169.726563 3720.00625 L 5159.765625 3718.951562 L 5149.84375 3717.50625 L 5140 3715.63125 L 5130.273438 3713.365625 L 5120.585938 3710.63125 L 5111.09375 3707.584375 L 5101.71875 3704.06875 L 5092.460938 3700.201562 L 5083.398438 3695.982812 L 5074.53125 3691.334375 L 5069.453125 3688.326562 L 5064.570313 3684.967187 L 5059.960938 3681.295312 L 5055.625 3677.271875 L 5051.523438 3673.014062 L 5047.773438 3668.404687 L 5044.335938 3663.6 L 5041.210938 3658.560937 L 5038.476563 3653.365625 L 5036.132813 3647.935937 L 5033.632813 3642.19375 L 5030.703125 3636.685937 L 5027.460938 3631.4125 L 5023.828125 3626.295312 L 5019.882813 3621.529687 L 5015.585938 3616.959375 L 5010.976563 3612.740625 L 5006.132813 3608.873437 L 5000.976563 3605.357812 L 4995.625 3602.154687 L 4990.078125 3599.38125 L 4984.296875 3596.920312 L 4978.398438 3594.889062 L 4972.382813 3593.326562 L 4966.25 3592.154687 L 4960.078125 3591.4125 L 4953.867188 3591.021875 L 4947.617188 3591.139062 L 4755.546875 3591.139062 L 4749.960938 3590.94375 L 4744.414063 3590.31875 L 4738.90625 3589.303125 L 4733.515625 3587.857812 L 4728.203125 3586.021875 L 4723.125 3583.795312 L 4718.164063 3581.217187 L 4713.4375 3578.248437 L 4708.90625 3574.928125 L 4704.6875 3571.334375 L 4700.703125 3567.35 L 4697.03125 3563.13125 L 4693.671875 3558.678125 L 4690.703125 3553.990625 L 4688.046875 3549.029687 L 4685.78125 3543.951562 L 4683.90625 3538.678125 L 4682.382813 3533.2875 L 4681.328125 3527.81875 L 4680.664063 3522.271875 L 4680.390625 3516.685937 L 4680.546875 3511.1 L 4681.132813 3505.553125 L 4681.132813 3395.592187 L 4680.9375 3388.404687 L 4680.273438 3381.217187 L 4679.296875 3374.107812 L 4677.8125 3367.0375 L 4675.976563 3360.045312 L 4673.710938 3353.209375 L 4671.09375 3346.529687 L 4668.046875 3339.928125 L 4664.648438 3333.6 L 4660.9375 3327.428125 L 4656.835938 3321.529687 L 4652.34375 3315.826562 L 4647.617188 3310.435937 L 4642.539063 3305.31875 L 4637.226563 3300.435937 L 4631.601563 3295.94375 L 4625.742188 3291.764062 L 4619.609375 3287.935937 L 4613.320313 3284.498437 L 4606.796875 3281.334375 L 4600.117188 3278.639062 L 4593.320313 3276.25625 L 4586.367188 3274.303125 L 4579.335938 3272.81875 L 4570.351563 3271.334375 L 4561.367188 3270.240625 L 4552.265625 3269.654687 L 4543.164063 3269.459375 L 4534.101563 3269.69375 L 4525.039063 3270.31875 L 4516.015625 3271.4125 L 4507.070313 3272.935937 L 4498.203125 3274.889062 L 4489.414063 3277.19375 L 4480.742188 3279.928125 L 4472.226563 3283.13125 L 4463.867188 3286.685937 L 4455.703125 3290.63125 L 4447.695313 3294.928125 L 4439.921875 3299.615625 L 4432.382813 3304.69375 L 4425.039063 3310.123437 L 4418.046875 3315.826562 L 4407.5 3324.576562 L 4396.71875 3332.975 L 4385.703125 3341.021875 L 4374.414063 3348.717187 L 4362.890625 3356.021875 L 4351.171875 3363.053125 L 4339.179688 3369.654687 L 4327.070313 3375.865625 L 4314.726563 3381.725 L 4302.1875 3387.19375 L 4289.492188 3392.310937 L 4276.679688 3396.959375 L 4263.710938 3401.25625 L 4250.625 3405.123437 L 4237.382813 3408.6 L 4224.0625 3411.646875 L 4210.703125 3414.303125 L 4197.1875 3416.490625 L 4165.039063 3421.060937 L 4132.8125 3425.240625 L 4100.507813 3428.990625 L 4068.203125 3432.35 L 4035.859375 3435.279687 L 4003.4375 3437.779687 L 3971.015625 3439.967187 L 3938.554688 3441.646875 L 3906.09375 3442.975 L 3873.59375 3443.873437 L 3841.09375 3444.342187 L 3808.632813 3444.420312 L 3776.132813 3444.06875 L 3743.632813 3443.326562 L 3711.171875 3442.19375 L 3678.671875 3440.592187 L 3646.25 3438.639062 L 3613.867188 3436.25625 L 3581.523438 3433.44375 L 3556.679688 3430.94375 L 3531.953125 3428.014062 L 3507.265625 3424.69375 L 3482.578125 3420.904687 L 3458.007813 3416.764062 L 3433.476563 3412.19375 L 3409.0625 3407.154687 L 3384.765625 3401.764062 L 3360.507813 3395.94375 L 3336.367188 3389.732812 L 3312.34375 3383.13125 L 3288.4375 3376.1 L 3264.609375 3368.678125 L 3240.9375 3360.865625 L 3217.421875 3352.6625 L 3194.023438 3343.990625 L 3170.78125 3335.045312 L 3147.695313 3325.592187 L 3124.765625 3315.826562 L 3106.445313 3308.053125 L 3087.96875 3300.748437 L 3069.335938 3293.834375 L 3050.507813 3287.310937 L 3031.601563 3281.217187 L 3012.539063 3275.553125 L 2993.359375 3270.31875 L 2974.0625 3265.514062 L 2954.648438 3261.139062 L 2935.15625 3257.19375 L 2915.625 3253.678125 L 2895.9375 3250.592187 L 2876.25 3247.975 L 2856.484375 3245.7875 L 2836.679688 3244.06875 L 2816.796875 3242.779687 L 2796.953125 3241.88125 L 2777.070313 3241.451562 L 2757.1875 3241.490625 L 2737.304688 3241.959375 L 2717.421875 3242.896875 L 2697.578125 3244.225 L 2677.773438 3246.021875 L 2658.007813 3248.2875 L 2638.320313 3250.982812 L 2618.671875 3254.06875 L 2589.101563 3258.951562 L 2559.453125 3263.365625 L 2529.726563 3267.389062 L 2499.960938 3271.021875 L 2470.15625 3274.225 L 2440.3125 3277.076562 L 2410.429688 3279.459375 L 2380.507813 3281.490625 L 2350.546875 3283.092187 L 2320.585938 3284.264062 L 2290.625 3285.084375 L 2260.664063 3285.435937 L 2230.664063 3285.435937 L 2200.703125 3285.00625 L 2170.703125 3284.146875 L 2140.742188 3282.935937 L 2110.78125 3281.25625 L 2080.898438 3279.225 L 2050.976563 3276.764062 L 2026.757813 3274.420312 L 2002.578125 3271.685937 L 1978.4375 3268.639062 L 1954.375 3265.240625 L 1930.3125 3261.451562 L 1906.367188 3257.310937 L 1882.421875 3252.857812 L 1858.59375 3247.975 L 1824.492188 3241.021875 L 1790.3125 3234.498437 L 1756.054688 3228.404687 L 1721.71875 3222.779687 L 1687.34375 3217.545312 L 1652.890625 3212.779687 L 1618.320313 3208.365625 L 1583.789063 3204.459375 L 1549.179688 3201.021875 L 1514.492188 3197.975 L 1479.804688 3195.396875 L 1445.039063 3193.248437 L 1410.3125 3191.529687 L 1375.507813 3190.240625 L 1340.742188 3189.420312 L 1305.9375 3189.06875 L 1271.171875 3189.107812 L 1236.40625 3189.576562 L 1201.601563 3190.514062 L 1166.835938 3191.920312 L 1132.070313 3193.717187 L 1097.382813 3195.982812 L 1062.695313 3198.717187 L 1028.007813 3201.842187 L 993.4375 3205.435937 L 958.828125 3209.420312 L 924.335938 3213.873437 L 889.921875 3218.75625 L 855.507813 3224.107812 L 831.171875 3228.248437 L 806.914063 3232.857812 L 782.734375 3237.857812 L 758.632813 3243.326562 L 734.648438 3249.185937 L 710.78125 3255.475 L 686.992188 3262.154687 L 663.359375 3269.342187 L 639.84375 3276.88125 L 616.484375 3284.889062 L 593.242188 3293.248437 L 570.15625 3302.0375 L 547.265625 3311.25625 L 524.492188 3320.865625 L 501.953125 3330.865625 L 479.570313 3341.25625 L 457.34375 3352.115625 L 435.351563 3363.2875 L 413.554688 3374.889062 L 391.914063 3386.842187 L 370.546875 3399.185937 L 349.375 3411.959375 L 328.4375 3425.045312 L 307.773438 3438.521875 L 287.304688 3452.35 L 267.109375 3466.56875 L 247.148438 3481.1 L 239.726563 3486.88125 L 232.578125 3492.935937 L 225.703125 3499.342187 L 219.101563 3506.021875 L 212.8125 3512.975 L 206.835938 3520.201562 L 201.132813 3527.701562 L 195.78125 3535.396875 L 190.820313 3543.365625 L 186.132813 3551.490625 L 181.835938 3559.85 L 173.90625 3576.607812 L 166.40625 3593.560937 L 159.296875 3610.63125 L 152.578125 3627.896875 L 146.25 3645.357812 L 140.390625 3662.857812 L 134.921875 3680.592187 L 129.84375 3698.404687 L 125.195313 3716.334375 L 121.015625 3734.38125 L 117.1875 3752.545312 L 113.828125 3770.748437 L 110.898438 3789.029687 L 108.398438 3807.389062 L 106.328125 3825.7875 L 104.726563 3844.264062 L 103.515625 3862.740625 L 102.773438 3881.25625 L 102.382813 3899.771875 L 102.539063 3918.326562 L 103.085938 3936.803125 L 104.023438 3955.31875 L 105.46875 3973.795312 L 107.304688 3992.232812 L 109.609375 4010.592187 L 112.304688 4028.9125 L 115.46875 4047.154687 L 119.0625 4065.357812 L 123.046875 4083.482812 L 127.460938 4101.451562 L 132.34375 4119.303125 L 137.578125 4137.115625 L 143.28125 4154.69375 L 149.375 4172.19375 L 155.859375 4189.576562 L 162.8125 4206.764062 L 170.117188 4223.75625 L 177.8125 4240.592187 L 185.9375 4257.271875 L 194.453125 4273.717187 L 203.320313 4289.967187 L 212.617188 4306.021875 L 217.929688 4314.69375 L 223.632813 4323.092187 L 229.609375 4331.334375 L 235.859375 4339.303125 L 242.5 4347.0375 L 249.335938 4354.5375 L 256.484375 4361.764062 L 263.867188 4368.75625 L 271.5625 4375.396875 L 279.453125 4381.803125 L 290.625 4390.201562 L 302.03125 4398.248437 L 313.632813 4405.904687 L 325.507813 4413.248437 L 337.617188 4420.201562 L 349.921875 4426.842187 L 362.382813 4433.053125 L 375.078125 4438.873437 L 387.929688 4444.342187 L 400.9375 4449.342187 L 414.101563 4454.029687 L 452.851563 4466.803125 L 491.757813 4479.185937 L 530.78125 4491.178125 L 569.921875 4502.740625 L 609.21875 4513.9125 L 648.632813 4524.615625 L 688.085938 4534.928125 L 727.695313 4544.810937 L 767.421875 4554.303125 L 807.226563 4563.365625 L 847.109375 4571.998437 L 887.109375 4580.201562 L 927.1875 4587.975 L 967.382813 4595.31875 L 1007.617188 4602.232812 L 1047.890625 4608.75625 L 1088.242188 4614.810937 L 1128.671875 4620.475 L 1169.21875 4625.709375 L 1209.726563 4630.475 L 1250.351563 4634.85 L 1290.976563 4638.75625 L 1315.351563 4640.7875 L 1339.804688 4642.389062 L 1364.257813 4643.560937 L 1388.710938 4644.264062 L 1413.164063 4644.576562 L 1437.695313 4644.459375 L 1462.148438 4643.9125 L 1486.601563 4642.935937 L 1511.054688 4641.56875 L 1535.46875 4639.732812 L 1559.84375 4637.467187 L 1584.179688 4634.771875 L 1608.4375 4631.685937 L 1632.65625 4628.170312 L 1656.835938 4624.225 L 1680.9375 4619.85 L 1704.960938 4615.045312 L 1752.578125 4605.357812 L 1800.3125 4595.982812 L 1848.125 4586.959375 L 1895.976563 4578.404687 L 1943.90625 4570.201562 L 1991.875 4562.35 L 2039.921875 4554.889062 L 2088.046875 4547.81875 L 2136.210938 4541.1 L 2184.414063 4534.810937 L 2232.695313 4528.873437 L 2281.015625 4523.326562 L 2329.335938 4518.170312 L 2352.265625 4516.021875 L 2375.15625 4514.264062 L 2398.085938 4512.896875 L 2421.054688 4511.920312 L 2444.023438 4511.295312 L 2466.992188 4511.1 L 2490 4511.295312 L 2512.929688 4511.920312 L 2535.9375 4512.896875 L 2558.867188 4514.264062 L 2581.796875 4516.021875 L 2604.648438 4518.170312 L 2630.546875 4520.592187 L 2656.367188 4522.584375 L 2682.34375 4524.107812 L 2708.203125 4525.201562 L 2734.21875 4525.865625 L 2760.15625 4526.021875 L 2786.09375 4525.748437 L 2812.03125 4525.00625 L 2837.96875 4523.873437 L 2863.867188 4522.232812 L 2889.765625 4520.201562 L 2915.625 4517.623437 L 2941.367188 4514.69375 L 2967.148438 4511.295312 L 2992.773438 4507.428125 L 3018.359375 4503.13125 L 3043.90625 4498.404687 L 3069.335938 4493.209375 L 3094.648438 4487.584375 L 3119.921875 4481.529687 L 3145.078125 4475.045312 L 3170.039063 4468.13125 L 3194.960938 4460.748437 L 3219.6875 4452.935937 L 3258.085938 4440.709375 L 3296.640625 4428.9125 L 3335.3125 4417.50625 L 3374.101563 4406.529687 L 3412.96875 4395.982812 L 3451.992188 4385.826562 L 3491.09375 4376.1 L 3530.3125 4366.803125 L 3569.648438 4357.896875 L 3609.0625 4349.459375 L 3648.554688 4341.451562 L 3688.125 4333.834375 L 3727.8125 4326.685937 L 3767.539063 4319.928125 L 3807.34375 4313.6 L 3826.484375 4310.904687 L 3845.625 4308.678125 L 3864.84375 4306.842187 L 3884.101563 4305.475 L 3903.359375 4304.576562 L 3922.65625 4304.06875 L 3941.992188 4304.06875 L 3961.25 4304.5375 L 3980.546875 4305.396875 L 3999.804688 4306.725 L 4019.023438 4308.44375 L 4038.203125 4310.709375 L 4057.265625 4313.365625 L 4076.328125 4316.490625 L 4095.351563 4320.00625 L 4114.179688 4323.990625 L 4133.007813 4328.404687 L 4151.679688 4333.2875 L 4170.234375 4338.560937 L 4188.632813 4344.264062 L 4206.953125 4350.435937 L 4225.117188 4356.998437 L 4243.085938 4363.990625 L 4260.9375 4371.4125 L 4278.59375 4379.225 L 4296.054688 4387.428125 L 4313.28125 4396.060937 L 4326.289063 4402.975 L 4339.023438 4410.279687 L 4351.601563 4417.896875 L 4363.984375 4425.904687 L 4376.09375 4434.264062 L 4387.929688 4442.935937 L 4399.53125 4451.998437 L 4410.898438 4461.295312 L 4422.03125 4470.982812 L 4432.8125 4480.94375 L 4443.320313 4491.217187 L 4446.5625 4494.225 L 4450.078125 4496.88125 L 4453.828125 4499.225 L 4457.734375 4501.25625 L 4461.796875 4502.896875 L 4466.015625 4504.185937 L 4470.3125 4505.084375 L 4481.992188 4506.725 L 4493.710938 4507.975 L 4505.46875 4508.75625 L 4517.1875 4509.107812 L 4528.984375 4509.06875 L 4540.742188 4508.6 L 4552.5 4507.701562 L 4564.21875 4506.334375 L 4575.859375 4504.5375 L 4587.421875 4502.35 L 4598.867188 4499.732812 L 4604.492188 4498.170312 L 4610 4496.217187 L 4615.390625 4493.9125 L 4620.546875 4491.25625 L 4625.585938 4488.2875 L 4630.390625 4484.967187 L 4634.921875 4481.334375 L 4639.296875 4477.467187 L 4643.359375 4473.2875 L 4647.1875 4468.834375 L 4650.625 4464.185937 L 4655.351563 4457.076562 L 4659.648438 4449.732812 L 4663.59375 4442.232812 L 4667.109375 4434.498437 L 4670.234375 4426.607812 L 4673.007813 4418.560937 L 4675.3125 4410.396875 L 4677.226563 4402.076562 L 4678.671875 4393.717187 L 4679.726563 4385.279687 L 4680.351563 4376.842187 L 4681.210938 4354.5375 L 4681.71875 4332.19375 L 4681.914063 4309.85 L 4681.71875 4287.545312 L 4681.210938 4265.201562 L 4680.351563 4242.896875 L 4680.351563 4239.107812 L 4680.742188 4235.279687 L 4681.523438 4231.56875 L 4682.695313 4227.896875 L 4684.140625 4224.38125 L 4685.976563 4221.060937 L 4688.125 4217.935937 L 4690.585938 4215.045312 L 4693.359375 4212.35 L 4696.328125 4210.00625 L 4699.570313 4207.935937 L 4707.851563 4203.482812 L 4716.328125 4199.38125 L 4725 4195.670312 L 4733.789063 4192.310937 L 4742.773438 4189.420312 L 4751.835938 4186.88125 L 4761.054688 4184.771875 L 4770.351563 4183.13125 L 4779.648438 4181.842187 L 4789.0625 4180.982812 L 4798.476563 4180.553125 L 4960.273438 4180.553125 L 4966.757813 4180.357812 L 4973.203125 4179.732812 L 4979.648438 4178.717187 L 4985.976563 4177.271875 L 4992.1875 4175.435937 L 4998.28125 4173.209375 L 5004.21875 4170.553125 L 5010 4167.584375 L 5015.585938 4164.185937 L 5020.859375 4160.475 L 5025.976563 4156.451562 L 5030.78125 4152.076562 L 5035.273438 4147.428125 L 5039.53125 4142.467187 L 5043.4375 4137.310937 L 5046.953125 4131.842187 L 5050.195313 4126.178125 L 5053.046875 4120.31875 L 5056.328125 4113.44375 L 5060.039063 4106.685937 L 5064.101563 4100.201562 L 5068.554688 4093.951562 L 5073.359375 4087.935937 L 5078.476563 4082.232812 L 5083.945313 4076.803125 L 5089.6875 4071.725 L 5095.703125 4066.959375 L 5101.953125 4062.545312 L 5108.476563 4058.482812 L 5115.234375 4054.810937 L 5122.148438 4051.56875 L 5129.296875 4048.639062 L 5136.523438 4046.178125 L 5143.945313 4044.107812 L 5151.445313 4042.467187 L 10181.601563 4042.467187 L 10190 4042.232812 L 10198.59375 4041.529687 L 10206.992188 4040.435937 L 10215.390625 4038.873437 L 10223.710938 4036.842187 L 10231.796875 4034.420312 L 10239.804688 4031.490625 L 10247.695313 4028.248437 L 10255.390625 4024.5375 L 10262.8125 4020.435937 L 10270.117188 4015.94375 L 10276.992188 4011.021875 L 10283.789063 4005.826562 L 10290.195313 4000.240625 L 10296.289063 3994.303125 L 10302.109375 3988.092187 L 10307.617188 3981.56875 L 10312.695313 3974.732812 L 10317.382813 3967.623437 L 10321.796875 3960.357812 L 10325.703125 3952.779687 L 10329.296875 3945.045312 L 10332.5 3937.154687 L 10335.3125 3929.06875 L 10337.5 3920.865625 L 10339.414063 3912.584375 L 10340.78125 3904.185937 L 10341.796875 3895.670312 L 10342.304688 3887.19375 L 10342.382813 3878.678125 L 10341.992188 3870.201562 L 10341.210938 3861.685937 L 10339.804688 3853.248437 L 10338.203125 3844.928125 L 10335.898438 3836.685937 L 10333.398438 3828.560937 L 10330.390625 3820.592187 L 10326.992188 3812.81875 L 10323.085938 3805.201562 L 10318.789063 3797.81875 L 10314.21875 3790.670312 L 10309.296875 3783.75625 L 10303.789063 3777.154687 L 10298.085938 3770.826562 L 10292.109375 3764.810937 L 10285.78125 3759.107812 L 10279.21875 3753.75625 L 10272.1875 3748.75625 L 10265.117188 3744.146875 L 10257.695313 3739.889062 L 10250.117188 3736.060937 L 10242.304688 3732.623437 L 10234.414063 3729.654687 L 10226.210938 3727.076562 L 10218.007813 3724.889062 L 10209.609375 3723.209375 L 10201.289063 3721.920312 L 10192.695313 3721.139062 L 10184.21875 3720.748437 L 10175.703125 3720.865625 " transform="matrix(0.1,0,0,-0.1,0,783.36)"/>
</g>
</svg>
