<?xml version="1.0" encoding="UTF-8"?>
<svg xmlns="http://www.w3.org/2000/svg" xmlns:xlink="http://www.w3.org/1999/xlink" width="818.04pt" height="115.26pt" viewBox="0 0 818.04 115.26" version="1.1">
<g id="surface1">
<path style="fill:none;stroke-width:10;stroke-linecap:round;stroke-linejoin:round;stroke:rgb(0%,0%,0%);stroke-opacity:1;stroke-miterlimit:4;" d="M 7998.359375 320.920313 C 8069.257813 479.357813 8070.273438 660.373438 8001.09375 819.670313 " transform="matrix(0.1,0,0,-0.1,0,115.26)"/>
<path style="fill:none;stroke-width:10;stroke-linecap:round;stroke-linejoin:round;stroke:rgb(0%,0%,0%);stroke-opacity:1;stroke-miterlimit:4;" d="M 8001.09375 819.670313 L 7943.476563 906.310938 L 7859.375 967.6 " transform="matrix(0.1,0,0,-0.1,0,115.26)"/>
<path style="fill:none;stroke-width:10;stroke-linecap:round;stroke-linejoin:round;stroke:rgb(0%,0%,0%);stroke-opacity:1;stroke-miterlimit:4;" d="M 7859.375 967.6 L 7685.429688 1041.701563 L 7483.945313 1102.639063 L 7272.382813 1136.389063 L 7058.945313 1138.498438 L 6861.40625 1116.701563 L 6674.648438 1086.467188 L 6585.9375 1073.498438 L 6506.992188 1064.826563 L 6368.476563 1059.396875 L 6236.601563 1068.225 L 6099.375 1086.428125 L 5971.328125 1095.451563 L 5852.460938 1079.592188 L 5740.273438 1043.38125 L 5678.515625 1020.959375 L 5644.726563 1009.240625 L 5600.585938 994.865625 L 5539.921875 977.678125 L 5462.890625 960.373438 L 5370 945.56875 L 5261.445313 935.88125 L 5137.65625 933.928125 L 4994.140625 943.146875 L 4829.296875 974.084375 L 4759.492188 1000.685938 L 4703.945313 1040.373438 " transform="matrix(0.1,0,0,-0.1,0,115.26)"/>
<path style="fill:none;stroke-width:10;stroke-linecap:round;stroke-linejoin:round;stroke:rgb(0%,0%,0%);stroke-opacity:1;stroke-miterlimit:4;" d="M 4703.945313 1040.373438 L 4670.898438 1064.279688 L 4631.015625 1072.678125 " transform="matrix(0.1,0,0,-0.1,0,115.26)"/>
<path style="fill:none;stroke-width:10;stroke-linecap:round;stroke-linejoin:round;stroke:rgb(0%,0%,0%);stroke-opacity:1;stroke-miterlimit:4;" d="M 4631.015625 1072.678125 L 4606.5625 1072.678125 " transform="matrix(0.1,0,0,-0.1,0,115.26)"/>
<path style="fill:none;stroke-width:10;stroke-linecap:round;stroke-linejoin:round;stroke:rgb(0%,0%,0%);stroke-opacity:1;stroke-miterlimit:4;" d="M 4606.5625 1072.678125 C 4580.46875 1072.678125 4555.429688 1062.326563 4536.953125 1043.85 C 4518.515625 1025.373438 4508.164063 1000.373438 4508.164063 974.279688 " transform="matrix(0.1,0,0,-0.1,0,115.26)"/>
<path style="fill:none;stroke-width:10;stroke-linecap:round;stroke-linejoin:round;stroke:rgb(0%,0%,0%);stroke-opacity:1;stroke-miterlimit:4;" d="M 4508.164063 974.279688 L 4508.164063 859.670313 " transform="matrix(0.1,0,0,-0.1,0,115.26)"/>
<path style="fill:none;stroke-width:10;stroke-linecap:round;stroke-linejoin:round;stroke:rgb(0%,0%,0%);stroke-opacity:1;stroke-miterlimit:4;" d="M 4437.890625 821.935938 C 4466.132813 821.935938 4492.539063 836.115625 4508.164063 859.670313 " transform="matrix(0.1,0,0,-0.1,0,115.26)"/>
<path style="fill:none;stroke-width:10;stroke-linecap:round;stroke-linejoin:round;stroke:rgb(0%,0%,0%);stroke-opacity:1;stroke-miterlimit:4;" d="M 4437.890625 821.935938 L 4307.8125 821.935938 " transform="matrix(0.1,0,0,-0.1,0,115.26)"/>
<path style="fill:none;stroke-width:10;stroke-linecap:round;stroke-linejoin:round;stroke:rgb(0%,0%,0%);stroke-opacity:1;stroke-miterlimit:4;" d="M 4307.8125 821.935938 C 4283.28125 821.935938 4259.921875 811.271875 4243.90625 792.639063 " transform="matrix(0.1,0,0,-0.1,0,115.26)"/>
<path style="fill:none;stroke-width:10;stroke-linecap:round;stroke-linejoin:round;stroke:rgb(0%,0%,0%);stroke-opacity:1;stroke-miterlimit:4;" d="M 4243.90625 792.639063 L 4212.578125 756.271875 " transform="matrix(0.1,0,0,-0.1,0,115.26)"/>
<path style="fill:none;stroke-width:10;stroke-linecap:round;stroke-linejoin:round;stroke:rgb(0%,0%,0%);stroke-opacity:1;stroke-miterlimit:4;" d="M 4148.632813 726.975 C 4173.203125 726.975 4196.5625 737.678125 4212.578125 756.271875 " transform="matrix(0.1,0,0,-0.1,0,115.26)"/>
<path style="fill:none;stroke-width:10;stroke-linecap:round;stroke-linejoin:round;stroke:rgb(0%,0%,0%);stroke-opacity:1;stroke-miterlimit:4;" d="M 4148.632813 726.975 L 254.6875 726.975 " transform="matrix(0.1,0,0,-0.1,0,115.26)"/>
<path style="fill:none;stroke-width:10;stroke-linecap:round;stroke-linejoin:round;stroke:rgb(0%,0%,0%);stroke-opacity:1;stroke-miterlimit:4;" d="M 254.6875 726.975 C 184.804688 726.975 128.125 670.334375 128.125 600.451563 C 128.125 530.56875 184.804688 473.889063 254.6875 473.889063 " transform="matrix(0.1,0,0,-0.1,0,115.26)"/>
<path style="fill:none;stroke-width:10;stroke-linecap:round;stroke-linejoin:round;stroke:rgb(0%,0%,0%);stroke-opacity:1;stroke-miterlimit:4;" d="M 254.6875 473.889063 L 4136.445313 473.889063 " transform="matrix(0.1,0,0,-0.1,0,115.26)"/>
<path style="fill:none;stroke-width:10;stroke-linecap:round;stroke-linejoin:round;stroke:rgb(0%,0%,0%);stroke-opacity:1;stroke-miterlimit:4;" d="M 4211.054688 428.928125 C 4196.445313 456.623438 4167.734375 473.889063 4136.445313 473.889063 " transform="matrix(0.1,0,0,-0.1,0,115.26)"/>
<path style="fill:none;stroke-width:10;stroke-linecap:round;stroke-linejoin:round;stroke:rgb(0%,0%,0%);stroke-opacity:1;stroke-miterlimit:4;" d="M 4211.054688 428.928125 L 4219.765625 412.44375 " transform="matrix(0.1,0,0,-0.1,0,115.26)"/>
<path style="fill:none;stroke-width:10;stroke-linecap:round;stroke-linejoin:round;stroke:rgb(0%,0%,0%);stroke-opacity:1;stroke-miterlimit:4;" d="M 4219.765625 412.44375 C 4234.375 384.748438 4263.085938 367.44375 4294.375 367.44375 " transform="matrix(0.1,0,0,-0.1,0,115.26)"/>
<path style="fill:none;stroke-width:10;stroke-linecap:round;stroke-linejoin:round;stroke:rgb(0%,0%,0%);stroke-opacity:1;stroke-miterlimit:4;" d="M 4294.375 367.44375 L 4437.890625 367.44375 " transform="matrix(0.1,0,0,-0.1,0,115.26)"/>
<path style="fill:none;stroke-width:10;stroke-linecap:round;stroke-linejoin:round;stroke:rgb(0%,0%,0%);stroke-opacity:1;stroke-miterlimit:4;" d="M 4508.164063 329.709375 C 4492.539063 353.264063 4466.132813 367.44375 4437.890625 367.44375 " transform="matrix(0.1,0,0,-0.1,0,115.26)"/>
<path style="fill:none;stroke-width:10;stroke-linecap:round;stroke-linejoin:round;stroke:rgb(0%,0%,0%);stroke-opacity:1;stroke-miterlimit:4;" d="M 4508.164063 329.709375 L 4508.164063 215.1 " transform="matrix(0.1,0,0,-0.1,0,115.26)"/>
<path style="fill:none;stroke-width:10;stroke-linecap:round;stroke-linejoin:round;stroke:rgb(0%,0%,0%);stroke-opacity:1;stroke-miterlimit:4;" d="M 4508.164063 215.1 C 4508.164063 189.00625 4518.515625 164.00625 4536.953125 145.529688 C 4555.429688 127.053125 4580.46875 116.701563 4606.5625 116.701563 " transform="matrix(0.1,0,0,-0.1,0,115.26)"/>
<path style="fill:none;stroke-width:10;stroke-linecap:round;stroke-linejoin:round;stroke:rgb(0%,0%,0%);stroke-opacity:1;stroke-miterlimit:4;" d="M 4606.5625 116.701563 L 4643.164063 116.701563 " transform="matrix(0.1,0,0,-0.1,0,115.26)"/>
<path style="fill:none;stroke-width:10;stroke-linecap:round;stroke-linejoin:round;stroke:rgb(0%,0%,0%);stroke-opacity:1;stroke-miterlimit:4;" d="M 4643.164063 116.701563 L 4676.640625 122.6 L 4706.171875 139.592188 " transform="matrix(0.1,0,0,-0.1,0,115.26)"/>
<path style="fill:none;stroke-width:10;stroke-linecap:round;stroke-linejoin:round;stroke:rgb(0%,0%,0%);stroke-opacity:1;stroke-miterlimit:4;" d="M 4706.171875 139.592188 L 4779.570313 191.896875 L 4860.507813 231.623438 L 4946.875 257.326563 L 5036.445313 269.475 L 5220.664063 260.1 L 5406.914063 220.842188 L 5766.601563 125.920313 L 5946.601563 101.35 L 6107.1875 102.75625 L 6261.25 107.248438 L 6405.078125 97.326563 L 6561.5625 72.873438 L 6730.9375 42.365625 L 6903.28125 18.576563 L 7088.710938 11.310938 L 7138.28125 13.225 L 7197.773438 17.717188 L 7288.398438 28.928125 L 7414.726563 51.076563 L 7492.539063 67.482813 L 7579.960938 88.06875 L 7657.539063 107.990625 L 7718.671875 125.217188 L 7765.859375 139.982813 L 7801.367188 152.404688 L 7846.796875 170.803125 " transform="matrix(0.1,0,0,-0.1,0,115.26)"/>
<path style="fill:none;stroke-width:10;stroke-linecap:round;stroke-linejoin:round;stroke:rgb(0%,0%,0%);stroke-opacity:1;stroke-miterlimit:4;" d="M 7846.796875 170.803125 L 7936.601563 231.701563 L 7998.359375 320.920313 " transform="matrix(0.1,0,0,-0.1,0,115.26)"/>
</g>
</svg>
