<?xml version="1.0" encoding="UTF-8"?>
<svg xmlns="http://www.w3.org/2000/svg" xmlns:xlink="http://www.w3.org/1999/xlink" width="594.78pt" height="186.26pt" viewBox="0 0 594.78 186.26" version="1.1">
<g id="surface1">
<path style="fill:none;stroke-width:12;stroke-linecap:round;stroke-linejoin:round;stroke:rgb(0%,0%,0%);stroke-opacity:1;stroke-miterlimit:4;" d="M 2964.453125 1483.303125 L 2642.539063 1573.85 L 2318.203125 1655.842187 L 1991.914063 1729.123437 L 1792.5 1751.857812 L 1592.109375 1763.85 L 1391.40625 1765.021875 L 1190.898438 1755.4125 L 991.25 1734.982812 L 217.8125 1634.670312 L 177.734375 1624.123437 L 141.679688 1603.576562 L 112.070313 1574.475 L 90.9375 1538.771875 L 60.664063 1359.7875 L 58.90625 1320.607812 L 67.578125 1282.326562 L 86.09375 1247.75625 L 113.125 1219.31875 L 146.679688 1199.084375 L 184.453125 1188.459375 L 212.03125 1175.295312 L 242.460938 1172.521875 L 633.242188 1207.951562 L 846.210938 1243.576562 L 1060.859375 1266.779687 L 1276.523438 1277.365625 L 1309.570313 1271.935937 L 1338.398438 1255.021875 L 1359.296875 1228.85 L 1369.335938 1196.975 L 1367.34375 1163.576562 L 1349.21875 1067.678125 L 1342.148438 970.334375 L 1346.210938 872.795312 L 1361.40625 776.35 L 1387.5 682.326562 L 1392.304688 648.06875 L 1384.023438 614.514062 L 1363.867188 586.35 L 1334.765625 567.678125 L 1300.820313 561.115625 L 1077.148438 567.717187 L 854.257813 587.75625 L 632.96875 621.232812 L 288.789063 646.310937 L 261.132813 643.810937 L 235.703125 632.639062 L 189.414063 627.990625 L 145.429688 612.639062 L 106.289063 587.44375 L 74.140625 553.810937 L 98.28125 287.053125 L 106.601563 252.170312 L 124.570313 221.076562 L 150.664063 196.389062 L 182.65625 180.217187 L 217.96875 173.810937 L 761.445313 133.38125 L 1305.585938 103.264062 L 1492.773438 105.842187 L 1679.570313 117.795312 L 1865.546875 139.123437 L 2050.195313 169.748437 L 3066.015625 423.029687 L 3087.851563 417.834375 L 3107.8125 407.44375 L 3119.296875 389.904687 L 3132.734375 370.295312 L 3281.601563 71.779687 L 3300.390625 46.779687 L 3326.835938 30.217187 L 3357.460938 24.1625 L 3388.242188 29.475 L 3531.601563 82.2875 L 3560.234375 99.7875 L 3579.921875 126.896875 L 3587.773438 159.514062 L 3582.539063 192.639062 L 3538.085938 313.38125 L 3538.242188 313.732812 L 3535.78125 319.592187 L 3683.4375 381.115625 L 3711.289063 399.826562 L 3729.84375 427.678125 L 3736.328125 460.607812 L 3729.6875 493.459375 L 3683.867188 603.498437 L 4657.8125 603.498437 L 5889.492188 832.639062 L 5889.492188 1061.81875 L 4657.8125 1233.69375 L 3656.25 1262.2875 L 3655.195313 1262.2875 L 3648.90625 1244.982812 L 3656.25 1262.2875 L 3703.90625 1374.826562 L 3710.507813 1402.717187 L 3707.578125 1431.232812 L 3695.390625 1457.248437 L 3675.351563 1477.75625 L 3649.6875 1490.529687 L 3509.765625 1532.951562 L 3565.46875 1669.709375 L 3571.835938 1702.6 L 3565.117188 1735.451562 L 3546.367188 1763.225 L 3518.320313 1781.701562 L 3394.765625 1832.053125 L 3363.710938 1838.38125 L 3332.460938 1833.06875 L 3305.3125 1816.740625 L 3285.859375 1791.6625 L 3138.828125 1504.748437 L 3128.28125 1488.771875 L 3122.8125 1476.935937 L 3113.515625 1467.873437 L 3092.03125 1457.209375 L 3068.59375 1452.482812 L 2964.453125 1483.303125 " transform="matrix(0.1,0,0,-0.1,0,186.26)"/>
</g>
</svg>
