<?xml version="1.0" encoding="UTF-8"?>
<svg xmlns="http://www.w3.org/2000/svg" xmlns:xlink="http://www.w3.org/1999/xlink" width="294.78pt" height="37.74pt" viewBox="0 0 294.78 37.74" version="1.1">
<g id="surface1">
<path style="fill:none;stroke-width:10;stroke-linecap:round;stroke-linejoin:round;stroke:rgb(0%,0%,0%);stroke-opacity:1;stroke-miterlimit:4;" d="M 2385 306.267188 L 2410.15625 310.095313 L 2433.007813 321.15 L 2451.601563 338.49375 L 2476.71875 358.571875 L 2508.085938 365.759375 L 2856.5625 365.759375 L 2880.429688 361.032813 L 2900.664063 347.517188 L 2914.140625 327.321875 L 2918.90625 303.454688 L 2918.90625 73.9625 L 2914.140625 50.095313 L 2900.664063 29.9 L 2880.429688 16.384375 L 2856.5625 11.61875 L 2508.085938 11.61875 L 2476.71875 18.80625 L 2451.601563 38.923438 L 2433.007813 56.267188 L 2410.15625 67.282813 L 2385 71.110938 L 91.25 71.110938 L 67.382813 75.876563 L 47.1875 89.353125 L 33.632813 109.626563 L 28.867188 133.454688 L 28.867188 243.9625 L 33.632813 267.790625 L 47.1875 288.025 L 67.382813 301.540625 L 91.25 306.267188 L 2385 306.267188 " transform="matrix(0.1,0,0,-0.1,0,37.74)"/>
</g>
</svg>
