0
SECTION
2
HEADER
9
$INSUNITS
70
4
9
$ACADVER
1
AC1014
9
$HANDSEED
5
FFFF
0
ENDSEC
0
SECTION
2
TABLES
0
TABLE
2
VPORT
5
8
100
AcDbSymbolTable
0
ENDTAB
0
TABLE
2
LTYPE
5
5
100
AcDbSymbolTable
0
LTYPE
5
14
100
AcDbSymbolTableRecord
100
AcDbLinetypeTableRecord
2
BYBLOCK
70
0
0
LTYPE
5
15
100
AcDbSymbolTableRecord
100
AcDbLinetypeTableRecord
2
BYLAYER
70
0
0
LTYPE
5
16
100
AcDbSymbolTableRecord
100
AcDbLinetypeTableRecord
2
DASHED
70
0
3
Dashed __ __ __ __ __ __ __ __ __ __ __ __ __ _
72
65
73
2
40
0.75
49
0.5
74
0
49
-0.25
74
0
0
ENDTAB
0
TABLE
2
LAYER
5
2
100
AcDbSymbolTable
70
2
0
LAYER
5
50
100
AcDbSymbolTableRecord
100
AcDbLayerTableRecord
2
0
70
0
62
7
6
CONTINUOUS
0
ENDTAB
0
TABLE
2
STYLE
5
3
100
AcDbSymbolTable
70
1
0
STYLE
5
11
100
AcDbSymbolTableRecord
100
AcDbTextStyleTableRecord
2
STANDARD
70
0
0
ENDTAB
0
TABLE
2
VIEW
5
6
100
AcDbSymbolTable
70
0
0
ENDTAB
0
TABLE
2
UCS
5
7
100
AcDbSymbolTable
70
0
0
ENDTAB
0
TABLE
2
APPID
5
9
100
AcDbSymbolTable
70
2
0
APPID
5
12
100
AcDbSymbolTableRecord
100
AcDbRegAppTableRecord
2
ACAD
70
0
0
ENDTAB
0
TABLE
2
DIMSTYLE
5
A
100
AcDbSymbolTable
70
1
0
ENDTAB
0
TABLE
2
BLOCK_RECORD
5
1
100
AcDbSymbolTable
70
1
0
BLOCK_RECORD
5
1F
100
AcDbSymbolTableRecord
100
AcDbBlockTableRecord
2
*MODEL_SPACE
0
BLOCK_RECORD
5
1B
100
AcDbSymbolTableRecord
100
AcDbBlockTableRecord
2
*PAPER_SPACE
0
ENDTAB
0
ENDSEC
0
SECTION
2
BLOCKS
0
BLOCK
5
20
100
AcDbEntity
100
AcDbBlockBegin
2
*MODEL_SPACE
0
ENDBLK
5
21
100
AcDbEntity
100
AcDbBlockEnd
0
BLOCK
5
1C
100
AcDbEntity
100
AcDbBlockBegin
2
*PAPER_SPACE
0
ENDBLK
5
1D
100
AcDbEntity
100
AcDbBlockEnd
0
ENDSEC
0
SECTION
2
ENTITIES
0
ARC
5
100
100
AcDbEntity
8
0
100
AcDbCircle
10
142.98509238415417
20
66.511287506722169
30
0
40
21.990830112522573
210
4.0269630949031016e-32
220
9.0010100515924758e-32
230
1
100
AcDbArc
50
-24.103271099469389
51
23.471497280546526
0
SPLINE
5
101
100
AcDbEntity
8
0
100
AcDbSpline
70
0
71
3
72
10
73
6
74
0
42
0.000000001
43
0.0000000001
44
0.0000000001
40
-0.74605295683907658
40
-0.74605295683907658
40
-0.74605295683907658
40
-0.74605295683907658
40
-0.37302647841953468
40
-0.37302647841953468
40
0
40
0
40
0
40
0
10
163.15636438132574
20
75.270077095126908
30
0
10
162.66111849646339
20
76.41061590453775
30
0
10
161.96719117236651
20
77.454168697618684
30
0
10
160.24676595486125
20
79.249865253263167
30
0
10
159.23386607721099
20
79.987816065263104
30
0
10
158.11556639127983
20
80.531418010340175
30
0
0
SPLINE
5
102
100
AcDbEntity
8
0
100
AcDbSpline
70
0
71
3
72
26
73
22
74
0
42
0.000000001
43
0.0000000001
44
0.0000000001
40
-33.810817472921663
40
-33.810817472921663
40
-33.810817472921663
40
-33.810817472921663
40
-29.801200921046696
40
-29.801200921046696
40
-26.573382883136119
40
-26.573382883136119
40
-20.855329632275829
40
-20.855329632275829
40
-14.122718385018867
40
-14.122718385018867
40
-10.315583222105801
40
-10.315583222105801
40
-4.7837601193727251
40
-4.7837601193727251
40
-1.32974218823308
40
-1.32974218823308
40
-0.52727549895527781
40
-0.52727549895527781
40
-0.18263286322868189
40
-0.18263286322868189
40
0
40
0
40
0
40
0
10
158.11556639127983
20
80.531418010340218
30
0
10
154.59480433713222
20
82.242849324205565
30
0
10
150.25096493216668
20
83.970741575403309
30
0
10
141.72603031394283
20
86.097832526473269
30
0
10
137.91955955028169
20
86.626847371889625
30
0
10
126.98487052973948
20
86.834240709462506
30
0
10
121.02040441509402
20
85.529249595557701
30
0
10
108.18282363437919
20
83.560034055477743
30
0
10
104.21254675670559
20
83.586664078707088
30
0
10
95.789201523734263
20
84.706649315971006
30
0
10
93.156719474130952
20
85.185428423865247
30
0
10
86.466307757971705
20
84.883959884828514
30
0
10
83.738782115169798
20
83.500465993245783
30
0
10
76.722939668678805
20
81.121288368786665
30
0
10
69.734919013872045
20
78.796067190637899
30
0
10
56.503199382095218
20
79.57539742754885
30
0
10
53.168912021904625
20
79.929639775025137
30
0
10
49.122120156520097
20
81.124773165423875
30
0
10
48.07840802474778
20
81.546990238233249
30
0
10
46.788024303517759
20
82.321035564478649
30
0
10
46.299359650074351
20
82.667978578589612
30
0
10
45.890553321881242
20
83.119072649509803
30
0
0
SPLINE
5
103
100
AcDbEntity
8
0
100
AcDbSpline
70
0
71
3
72
12
73
8
74
0
42
0.000000001
43
0.0000000001
44
0.0000000001
40
-0.29267447164772376
40
-0.29267447164772376
40
-0.29267447164772376
40
-0.29267447164772376
40
-0.21466707235446947
40
-0.21466707235446947
40
-0.13657663994824737
40
-0.13657663994824737
40
0
40
0
40
0
40
0
10
45.890553321881249
20
83.119072649509818
30
0
10
45.715929557545081
20
83.311759844646915
30
0
10
45.520375457629598
20
83.484381940403054
30
0
10
45.094451276547282
20
83.78326210241255
30
0
10
44.865367661261743
20
83.908542031562661
30
0
10
44.203272236418229
20
84.179922659246216
30
0
10
43.75236111366447
20
84.268747319148844
30
0
10
43.297105647170312
20
84.268747319148844
30
0
0
LINE
5
104
100
AcDbEntity
8
0
100
AcDbLine
10
43.297105647170312
20
84.268747319148858
30
0
11
42.426723170165346
21
84.268747319148844
31
0
0
ARC
5
105
100
AcDbEntity
8
0
100
AcDbCircle
10
42.426723170165339
20
80.768747319148829
30
0
40
3.5000000000000142
210
0
220
-0
230
1
100
AcDbArc
50
89.999999999999901
51
180
0
LINE
5
106
100
AcDbEntity
8
0
100
AcDbLine
10
38.926723170165324
20
80.768747319148829
30
0
11
38.926723170165317
21
76.693142791171866
31
1.8488927466117464e-31
0
ARC
5
107
100
AcDbEntity
8
0
100
AcDbCircle
10
36.426723170165317
20
78.351455186349597
30
0
40
3.000000000000016
210
0
220
0
230
1
100
AcDbArc
50
270.00000000000011
51
326.4426902380788
0
LINE
5
108
100
AcDbEntity
8
0
100
AcDbLine
10
36.426723170165324
20
75.351455186349583
30
0
11
31.801777711771223
21
75.351455186349597
31
0
0
ARC
5
109
100
AcDbEntity
8
0
100
AcDbCircle
10
31.801777711771223
20
72.351455186349597
30
0
40
2.9999999999999982
210
9.8607613152626476e-32
220
-0
230
1
100
AcDbArc
50
90
51
139.24885546014175
0
LINE
5
110
100
AcDbEntity
8
0
100
AcDbLine
10
29.529121877637323
20
74.309779842676306
30
1.7582473728675666e-31
11
28.413545655754426
21
73.015142203869885
31
0
0
ARC
5
111
100
AcDbEntity
8
0
100
AcDbCircle
10
26.140889821620515
20
74.973466860196609
30
6.6780629940479564e-45
40
3.000000000000016
210
1.0331815727674031e-32
220
-1.3906896248655152e-31
230
1
100
AcDbArc
50
270.00000000000261
51
319.24885546014167
0
LINE
5
112
100
AcDbEntity
8
0
100
AcDbLine
10
26.140889821620654
20
71.973466860196595
30
-4.1720688745965156e-31
11
-112.35214931812197
21
71.973466860196595
31
0
0
ARC
5
113
100
AcDbEntity
8
0
100
AcDbCircle
10
-112.35214931812197
20
67.473466860196595
30
0
40
4.4999999999999929
210
0
220
-0
230
1
100
AcDbArc
50
90
51
270
0
LINE
5
114
100
AcDbEntity
8
0
100
AcDbLine
10
-112.35214931812197
20
62.973466860196609
30
0
11
25.706718532162558
21
62.973466860196595
31
0
0
ARC
5
115
100
AcDbEntity
8
0
100
AcDbCircle
10
25.706718532162558
20
59.973466860196595
30
0
40
3.0000000000000004
210
-2.3005076943834625e-32
220
4.3607703192472269e-32
230
1
100
AcDbArc
50
27.813716472275754
51
90
0
LINE
5
116
100
AcDbEntity
8
0
100
AcDbLine
10
28.360126426235134
20
61.373262040811724
30
2.7170887009258014e-47
11
28.669805404159121
21
60.786244271332933
31
0
0
ARC
5
117
100
AcDbEntity
8
0
100
AcDbCircle
10
31.323213298231693
20
62.186039451948069
30
0
40
3.0000000000000004
210
-2.3005076943834616e-32
220
4.3607703192472275e-32
230
1
100
AcDbArc
50
207.8137164722759
51
270
0
LINE
5
118
100
AcDbEntity
8
0
100
AcDbLine
10
31.323213298231693
20
59.186039451948062
30
1.3082310957741682e-31
11
36.426723170165332
21
59.186039451948069
31
0
0
ARC
5
119
100
AcDbEntity
8
0
100
AcDbCircle
10
36.426723170165346
20
56.186039451948105
30
-3.4758770501806986e-45
40
2.9999999999999725
210
9.8607613152626235e-32
220
2.4651903288156285e-32
230
1
100
AcDbArc
50
33.557309761920763
51
90.00000000000027
0
LINE
5
120
100
AcDbEntity
8
0
100
AcDbLine
10
38.926723170165324
20
57.844351847125793
30
-2.8739958966903766e-31
11
38.926723170165346
21
53.768747319148829
31
-6.1629758220391547e-32
0
ARC
5
121
100
AcDbEntity
8
0
100
AcDbCircle
10
42.426723170165346
20
53.768747319148829
30
0
40
3.4999999999999964
210
-1.7608502348683319e-32
220
0
230
1
100
AcDbArc
50
180
51
270
0
LINE
5
122
100
AcDbEntity
8
0
100
AcDbLine
10
42.426723170165346
20
50.268747319148837
30
0
11
43.727549321517728
21
50.268747319148837
31
0
0
SPLINE
5
123
100
AcDbEntity
8
0
100
AcDbSpline
70
0
71
3
72
10
73
6
74
0
42
0.000000001
43
0.0000000001
44
0.0000000001
40
-0.2440319892053871
40
-0.2440319892053871
40
-0.2440319892053871
40
-0.2440319892053871
40
-0.12201599460269152
40
-0.12201599460269152
40
0
40
0
40
0
40
0
10
43.727549321517728
20
50.268747319148837
30
0
10
44.134269303526715
20
50.268747319148837
30
0
10
44.537894004854209
20
50.339642095048276
30
0
10
45.302644785895254
20
50.616843859037346
30
0
10
45.657950845881686
20
50.821041245182386
30
0
10
45.970206796913999
20
51.081650847481086
30
0
0
SPLINE
5
124
100
AcDbEntity
8
0
100
AcDbSpline
70
0
71
3
72
24
73
20
74
0
42
0.000000001
43
0.0000000001
44
0.0000000001
40
-8.2208608915363666
40
-8.2208608915363666
40
-8.2208608915363666
40
-8.2208608915363666
40
-7.7157662543399823
40
-7.7157662543399823
40
-7.213349966995545
40
-7.213349966995545
40
-6.210710739704318
40
-6.210710739704318
40
-4.7325747313031261
40
-4.7325747313031261
40
-3.7690692807810642
40
-3.7690692807810642
40
-2.6013936312242336
40
-2.6013936312242336
40
-0.86970343979980547
40
-0.86970343979980547
40
-0.40060931405141165
40
-0.40060931405141165
40
0
40
0
40
0
40
0
10
45.970206796913999
20
51.081650847481086
30
0
10
47.597340426005559
20
52.43966066783041
30
0
10
49.384314909830103
20
53.532354919268776
30
0
10
53.318542739701257
20
55.095331755920697
30
0
10
55.355504789418191
20
55.527087599013207
30
0
10
61.668899964268789
20
55.998452784031166
30
0
10
66.000548194688463
20
55.208506520255902
30
0
10
76.669175584214599
20
52.517435981448031
30
0
10
82.505903830082858
20
50.38580702359333
30
0
10
92.817388744939848
20
49.45149676179615
30
0
10
95.922880380610977
20
49.850789108469627
30
0
10
103.71318162624345
20
50.016641683642725
30
0
10
106.9488890546225
20
49.597157217235903
30
0
10
118.4329733373275
20
47.563147497488984
30
0
10
124.7762825782419
20
46.101682939737387
30
0
10
135.07719583983496
20
46.750524279376968
30
0
10
139.54224561821039
20
47.167157797672168
30
0
10
154.16166912779192
20
50.690388150354771
30
0
10
156.44392266501117
20
51.659251034494098
30
0
10
157.66813234893951
20
52.192644583017696
30
0
0
SPLINE
5
125
100
AcDbEntity
8
0
100
AcDbSpline
70
0
71
3
72
10
73
6
74
0
42
0.000000001
43
0.0000000001
44
0.0000000001
40
-0.77837547557519882
40
-0.77837547557519882
40
-0.77837547557519882
40
-0.77837547557519882
40
-0.38918773778760857
40
-0.38918773778760857
40
0
40
0
40
0
40
0
10
157.66813234893942
20
52.19264458301766
30
0
10
158.85743918918072
20
52.710830808896972
30
0
10
159.94047779191371
20
53.444969256390102
30
0
10
161.78407503742673
20
55.270625329170613
30
0
10
162.52876937494847
20
56.346433034460247
30
0
10
163.05856100967537
20
57.530615684522871
30
0
0
ENDSEC
0
SECTION
2
OBJECTS
0
DICTIONARY
5
C
100
AcDbDictionary
3
ACAD_GROUP
350
D
3
ACAD_MLINESTYLE
350
17
0
DICTIONARY
5
D
100
AcDbDictionary
0
DICTIONARY
5
1A
330
C
100
AcDbDictionary
0
DICTIONARY
5
17
100
AcDbDictionary
0
ENDSEC
0
EOF
