0
SECTION
2
HEADER
9
$INSUNITS
70
4
9
$ACADVER
1
AC1014
9
$HANDSEED
5
FFFF
0
ENDSEC
0
SECTION
2
TABLES
0
TABLE
2
VPORT
5
8
100
AcDbSymbolTable
0
ENDTAB
0
TABLE
2
LTYPE
5
5
100
AcDbSymbolTable
0
LTYPE
5
14
100
AcDbSymbolTableRecord
100
AcDbLinetypeTableRecord
2
BYBLOCK
70
0
0
LTYPE
5
15
100
AcDbSymbolTableRecord
100
AcDbLinetypeTableRecord
2
BYLAYER
70
0
0
LTYPE
5
16
100
AcDbSymbolTableRecord
100
AcDbLinetypeTableRecord
2
DASHED
70
0
3
Dashed __ __ __ __ __ __ __ __ __ __ __ __ __ _
72
65
73
2
40
0.75
49
0.5
74
0
49
-0.25
74
0
0
ENDTAB
0
TABLE
2
LAYER
5
2
100
AcDbSymbolTable
70
2
0
LAYER
5
50
100
AcDbSymbolTableRecord
100
AcDbLayerTableRecord
2
0
70
0
62
7
6
CONTINUOUS
0
ENDTAB
0
TABLE
2
STYLE
5
3
100
AcDbSymbolTable
70
1
0
STYLE
5
11
100
AcDbSymbolTableRecord
100
AcDbTextStyleTableRecord
2
STANDARD
70
0
0
ENDTAB
0
TABLE
2
VIEW
5
6
100
AcDbSymbolTable
70
0
0
ENDTAB
0
TABLE
2
UCS
5
7
100
AcDbSymbolTable
70
0
0
ENDTAB
0
TABLE
2
APPID
5
9
100
AcDbSymbolTable
70
2
0
APPID
5
12
100
AcDbSymbolTableRecord
100
AcDbRegAppTableRecord
2
ACAD
70
0
0
ENDTAB
0
TABLE
2
DIMSTYLE
5
A
100
AcDbSymbolTable
70
1
0
ENDTAB
0
TABLE
2
BLOCK_RECORD
5
1
100
AcDbSymbolTable
70
1
0
BLOCK_RECORD
5
1F
100
AcDbSymbolTableRecord
100
AcDbBlockTableRecord
2
*MODEL_SPACE
0
BLOCK_RECORD
5
1B
100
AcDbSymbolTableRecord
100
AcDbBlockTableRecord
2
*PAPER_SPACE
0
ENDTAB
0
ENDSEC
0
SECTION
2
BLOCKS
0
BLOCK
5
20
100
AcDbEntity
100
AcDbBlockBegin
2
*MODEL_SPACE
0
ENDBLK
5
21
100
AcDbEntity
100
AcDbBlockEnd
0
BLOCK
5
1C
100
AcDbEntity
100
AcDbBlockBegin
2
*PAPER_SPACE
0
ENDBLK
5
1D
100
AcDbEntity
100
AcDbBlockEnd
0
ENDSEC
0
SECTION
2
ENTITIES
0
LWPOLYLINE
5
100
100
AcDbEntity
8
0
100
AcDbPolyline
90
50
70
1
43
0.0
10
15.798011019572947
20
-64.692340081298653
42
0.36073861454787581
10
17.306691524514811
20
-68.213118022992134
10
27.322522730844252
20
-73.345501101250832
42
-0.38905367756567977
10
28.732675513501352
20
-77.147285579822693
10
26.975114632636675
20
-81.461231810287103
42
-0.41421356237309281
10
23.06493797821879
20
-83.107597058719278
10
21.339350518264311
20
-82.404569052780971
42
0.44160425700227951
10
17.336408475423926
20
-84.312696145252232
10
16.811076194614834
20
-86.046027999724345
42
-0.43949154907393778
10
12.827824877808725
20
-87.962096236973764
42
0.52125814503629841
10
8.7168336414679857
20
-90.662629011480291
10
7.8479290506022981
20
-121.07428969177897
42
-0.027525968614130557
10
7.8203674773166787
20
-121.40319846581674
10
2.2039637214484209
20
-161.65409204953903
42
-0.3741658354231932
10
-0.76725096464804299
20
-164.23950395380467
10
-3.6634527943612802
20
-164.2395039538047
42
-0.36130821251672823
10
-6.6128429428120361
20
-161.78822770235365
10
-14.156791666402469
20
-121.23950331305491
10
-14.156791666402452
20
-91.729332464316101
42
0.51732318638014319
10
-18.153980975445336
20
-88.899913180800368
42
-0.3979201758528203
10
-21.920401053718997
20
-87.224340051130852
10
-22.96154376830842
20
-84.725597536116211
42
0.40200420672896214
10
-26.76771098876533
20
-83.064348168293776
10
-28.500358204303605
20
-83.702566317936572
42
-0.41421356237309398
10
-32.352390177198288
20
-81.924407247494102
10
-34.196264720027273
20
-76.918620285483456
42
-0.38244617783618851
10
-32.719976039939567
20
-73.196987158456324
10
-22.298123161826148
20
-67.999808623886366
42
0.35164352249867892
10
-20.726044450656751
20
-64.589339739507608
10
-29.298404776032811
20
-30.207808553329812
42
-0.050315214514676972
10
-31.61950820939094
20
-4.2133895236621122
42
-0.0095360337033566743
10
-29.157144159844222
20
33.756306836071566
42
-0.37802577815049987
10
-25.203953388213975
20
37.935039376211712
10
-15.891228833580717
20
38.778129607333135
42
-0.24041258058769729
10
-13.139706916487839
20
33.136876925669718
42
-0.16373806458556936
10
-12.662682881936824
20
31.283734365957869
10
-13.537194262573635
20
19.267911621289102
42
0.04531836886097753
10
-15.635854990534867
20
-4.0465349604031777
42
0.513626393454926
10
-11.405090972056771
20
-7.0734137130849799
42
-0.14400128741568755
10
5.3963774150140464
20
-6.3685912734057286
42
0.49390983588234139
10
9.3691474513541628
20
-3.1989957467431518
42
0.043722922026754985
10
6.9447898822071119
20
19.258327250183669
10
5.709712701237228
20
32.90091634440757
42
-0.18073369126355568
10
6.2644802907498214
20
34.926522658297792
42
-0.42577694347354417
10
12.245007478932365
20
39.247776968838082
10
18.494888380915949
20
38.191148511162865
42
-0.26507972909401128
10
21.843207649597694
20
33.760507882292075
10
25.343208922193448
20
6.7604985942929829
42
-0.067485970339688423
10
25.138610217446292
20
-28.17250675363735
42
-0.020013780690274478
10
16.557271686070557
20
-62.12536133063157
0
ENDSEC
0
SECTION
2
OBJECTS
0
DICTIONARY
5
C
100
AcDbDictionary
3
ACAD_GROUP
350
D
3
ACAD_MLINESTYLE
350
17
0
DICTIONARY
5
D
100
AcDbDictionary
0
DICTIONARY
5
1A
330
C
100
AcDbDictionary
0
DICTIONARY
5
17
100
AcDbDictionary
0
ENDSEC
0
EOF
