<?xml version="1.0" encoding="UTF-8"?>
<svg xmlns="http://www.w3.org/2000/svg" xmlns:xlink="http://www.w3.org/1999/xlink" width="523.79pt" height="81.14pt" viewBox="0 0 523.79 81.14" version="1.1">
<g id="surface1">
<path style="fill:none;stroke-width:10;stroke-linecap:round;stroke-linejoin:round;stroke:rgb(0%,0%,0%);stroke-opacity:1;stroke-miterlimit:4;" d="M 613.085938 703.079687 L 549.6875 734.8375 L 481.25 753.782812 L 410.546875 759.2125 L 340.078125 750.892187 L 272.539063 729.173437 L 210.429688 694.8375 L 156.09375 649.2125 L 111.601563 593.939062 L 78.554688 531.165625 L 58.203125 463.196875 L 51.367188 392.571875 L 58.203125 321.946875 L 78.554688 253.978125 L 111.601563 191.204687 L 156.09375 135.970312 L 210.429688 90.30625 L 272.539063 56.009375 L 340.078125 34.251562 L 410.546875 25.93125 L 481.25 31.360937 L 549.6875 50.30625 L 613.085938 82.064062 L 689.53125 124.720312 L 769.921875 159.329687 L 853.476563 185.423437 L 958.242188 205.423437 L 1064.648438 212.103125 L 4218.007813 212.103125 L 4331.445313 194.095312 L 4441.71875 162.142187 L 4547.226563 116.829687 L 4628.828125 70.228125 L 4682.03125 43.548437 L 4739.609375 28.392187 L 4799.0625 25.423437 L 4857.851563 34.798437 L 4937.265625 62.80625 L 5011.367188 102.80625 L 5078.359375 153.821875 L 5136.71875 214.603125 L 5184.882813 283.626562 L 5185.546875 297.923437 L 5176.210938 308.782812 L 5162.03125 310.384375 L 4849.179688 226.595312 L 4801.992188 253.782812 L 4761.953125 290.735937 L 4731.09375 335.61875 L 4710.9375 386.204687 L 4702.421875 440.032812 L 4706.015625 494.36875 L 4721.5625 546.634375 L 4748.242188 594.134375 L 5077.851563 682.415625 L 5086.5625 689.05625 L 5088.125 699.8375 L 5081.71875 708.665625 L 5006.289063 747.18125 L 4925.664063 772.9625 L 4841.835938 785.267187 L 4757.148438 783.821875 L 4673.828125 768.626562 L 4601.71875 745.267187 L 4532.34375 714.642187 L 4466.484375 677.142187 L 4428.984375 651.478125 L 4382.382813 618.001562 L 4330.546875 593.275 L 4275.195313 578.157812 L 4218.007813 573.040625 L 1064.648438 573.040625 L 958.242188 579.759375 L 853.476563 599.720312 L 769.921875 625.853125 L 689.53125 660.423437 L 613.085938 703.079687 " transform="matrix(0.1,0,0,-0.1,0,81.14)"/>
</g>
</svg>
